<mxfile host="app.diagrams.net" modified="2022-10-10T11:05:29.554Z" agent="5.0 (Windows NT 10.0; Win64; x64) AppleWebKit/537.36 (KHTML, like Gecko) Chrome/105.0.0.0 Safari/537.36 Edg/105.0.1343.53" etag="lQmucdvEVZy_TravAECk" version="20.4.0" type="github">
  <diagram id="rZdN4fdc3lee0H7srUzD" name="Page-1">
    <mxGraphModel dx="778" dy="412" grid="1" gridSize="10" guides="1" tooltips="1" connect="1" arrows="1" fold="1" page="1" pageScale="1" pageWidth="850" pageHeight="1100" math="1" shadow="0">
      <root>
        <mxCell id="0" />
        <mxCell id="1" parent="0" />
        <mxCell id="mmjuXgAY9vCs1paXeT_F-7" style="edgeStyle=orthogonalEdgeStyle;rounded=0;orthogonalLoop=1;jettySize=auto;html=1;exitX=1;exitY=0.5;exitDx=0;exitDy=0;entryX=0;entryY=0.5;entryDx=0;entryDy=0;" edge="1" parent="1" source="mmjuXgAY9vCs1paXeT_F-1" target="mmjuXgAY9vCs1paXeT_F-2">
          <mxGeometry relative="1" as="geometry" />
        </mxCell>
        <mxCell id="mmjuXgAY9vCs1paXeT_F-1" value="$$\frac{1}{s}$$" style="rounded=0;whiteSpace=wrap;html=1;" vertex="1" parent="1">
          <mxGeometry x="280" y="80" width="40" height="40" as="geometry" />
        </mxCell>
        <mxCell id="mmjuXgAY9vCs1paXeT_F-8" style="edgeStyle=orthogonalEdgeStyle;rounded=0;orthogonalLoop=1;jettySize=auto;html=1;exitX=1;exitY=0.5;exitDx=0;exitDy=0;entryX=0.5;entryY=0;entryDx=0;entryDy=0;" edge="1" parent="1" source="mmjuXgAY9vCs1paXeT_F-2" target="mmjuXgAY9vCs1paXeT_F-3">
          <mxGeometry relative="1" as="geometry" />
        </mxCell>
        <mxCell id="mmjuXgAY9vCs1paXeT_F-2" value="$$\dfrac{1}{T_i&lt;br&gt;}$$" style="rounded=0;whiteSpace=wrap;html=1;" vertex="1" parent="1">
          <mxGeometry x="360" y="80" width="40" height="40" as="geometry" />
        </mxCell>
        <mxCell id="mmjuXgAY9vCs1paXeT_F-10" style="edgeStyle=orthogonalEdgeStyle;rounded=0;orthogonalLoop=1;jettySize=auto;html=1;exitX=1;exitY=0.5;exitDx=0;exitDy=0;" edge="1" parent="1" source="mmjuXgAY9vCs1paXeT_F-3">
          <mxGeometry relative="1" as="geometry">
            <mxPoint x="480" y="180" as="targetPoint" />
          </mxGeometry>
        </mxCell>
        <mxCell id="mmjuXgAY9vCs1paXeT_F-3" value="" style="ellipse;whiteSpace=wrap;html=1;" vertex="1" parent="1">
          <mxGeometry x="430" y="170" width="20" height="20" as="geometry" />
        </mxCell>
        <mxCell id="mmjuXgAY9vCs1paXeT_F-6" style="edgeStyle=orthogonalEdgeStyle;rounded=0;orthogonalLoop=1;jettySize=auto;html=1;exitX=1;exitY=0.5;exitDx=0;exitDy=0;entryX=0;entryY=0.5;entryDx=0;entryDy=0;" edge="1" parent="1" source="mmjuXgAY9vCs1paXeT_F-5" target="mmjuXgAY9vCs1paXeT_F-1">
          <mxGeometry relative="1" as="geometry">
            <Array as="points">
              <mxPoint x="240" y="180" />
              <mxPoint x="240" y="100" />
            </Array>
          </mxGeometry>
        </mxCell>
        <mxCell id="mmjuXgAY9vCs1paXeT_F-9" style="edgeStyle=orthogonalEdgeStyle;rounded=0;orthogonalLoop=1;jettySize=auto;html=1;exitX=1;exitY=0.5;exitDx=0;exitDy=0;entryX=0;entryY=0.5;entryDx=0;entryDy=0;" edge="1" parent="1" source="mmjuXgAY9vCs1paXeT_F-5" target="mmjuXgAY9vCs1paXeT_F-3">
          <mxGeometry relative="1" as="geometry" />
        </mxCell>
        <mxCell id="mmjuXgAY9vCs1paXeT_F-5" value="$$K_p$$" style="rounded=0;whiteSpace=wrap;html=1;" vertex="1" parent="1">
          <mxGeometry x="160" y="160" width="40" height="40" as="geometry" />
        </mxCell>
        <mxCell id="mmjuXgAY9vCs1paXeT_F-13" value="+" style="text;html=1;strokeColor=none;fillColor=none;align=center;verticalAlign=middle;whiteSpace=wrap;rounded=0;" vertex="1" parent="1">
          <mxGeometry x="411" y="166" width="12" height="12" as="geometry" />
        </mxCell>
        <mxCell id="mmjuXgAY9vCs1paXeT_F-14" value="+" style="text;html=1;strokeColor=none;fillColor=none;align=center;verticalAlign=middle;whiteSpace=wrap;rounded=0;" vertex="1" parent="1">
          <mxGeometry x="424" y="156" width="12" height="12" as="geometry" />
        </mxCell>
        <mxCell id="mmjuXgAY9vCs1paXeT_F-16" value="" style="endArrow=classic;html=1;rounded=0;entryX=0;entryY=0.5;entryDx=0;entryDy=0;" edge="1" parent="1" target="mmjuXgAY9vCs1paXeT_F-5">
          <mxGeometry width="50" height="50" relative="1" as="geometry">
            <mxPoint x="120" y="180" as="sourcePoint" />
            <mxPoint x="210" y="190" as="targetPoint" />
          </mxGeometry>
        </mxCell>
        <mxCell id="mmjuXgAY9vCs1paXeT_F-17" value="e" style="edgeLabel;html=1;align=center;verticalAlign=middle;resizable=0;points=[];" vertex="1" connectable="0" parent="mmjuXgAY9vCs1paXeT_F-16">
          <mxGeometry x="-0.2649" relative="1" as="geometry">
            <mxPoint x="-5" y="-10" as="offset" />
          </mxGeometry>
        </mxCell>
      </root>
    </mxGraphModel>
  </diagram>
</mxfile>
